<?xml version="1.0" encoding="UTF-8" standalone="no"?>
<svg
   xmlns:dc="http://purl.org/dc/elements/1.1/"
   xmlns:cc="http://creativecommons.org/ns#"
   xmlns:rdf="http://www.w3.org/1999/02/22-rdf-syntax-ns#"
   xmlns:svg="http://www.w3.org/2000/svg"
   xmlns="http://www.w3.org/2000/svg"
   id="svg16"
   version="1.1"
   viewBox="0 0 33 28">
  <metadata
     id="metadata22">
    <rdf:RDF>
      <cc:Work
         rdf:about="">
        <dc:format>image/svg+xml</dc:format>
        <dc:type
           rdf:resource="http://purl.org/dc/dcmitype/StillImage" />
        <dc:title></dc:title>
      </cc:Work>
    </rdf:RDF>
  </metadata>
  <defs
     id="defs20" />
  <path
     id="path2"
     style="stroke-width:0.05223881;fill:none"
     d="M 9.1944443,20.696222 C 5.0381018,16.535596 1.8031556,13.256433 1.6537219,13.052429 1.051727,12.230599 0.61234688,11.356251 0.3548804,10.467788 -0.8834978,6.1944034 1.4635057,1.7686138 5.6865672,0.41372274 6.5591099,0.13378357 7.1658871,0.04309824 8.1679104,0.04287577 9.4022628,0.04260152 10.364281,0.23464944 11.418079,0.69170678 12.557801,1.1860308 13.079155,1.577049 14.595353,3.0746766 c 0.860814,0.8502709 1.299575,1.2463259 1.462686,1.320317 0.278064,0.1261363 0.610275,0.1372878 0.869035,0.029171 0.11657,-0.048706 0.669774,-0.5526556 1.447949,-1.3190298 1.404246,-1.3829523 1.853092,-1.7339946 2.82647,-2.21057935 0.781843,-0.38280591 1.439253,-0.59822612 2.246268,-0.73605784 0.534403,-0.09127158 0.773266,-0.10310237 1.619403,-0.08020808 0.647838,0.01752884 1.128603,0.05737579 1.384329,0.11473656 3.311437,0.74277509 5.747931,3.20229321 6.372212,6.43242921 0.444736,2.3011366 -0.08694,4.6005147 -1.499779,6.4861657 -0.26558,0.354457 -3.342696,3.439277 -13.034956,13.067592 l -1.815507,1.803529 z" />
  <path
     id="path4"
     style="fill:none;stroke-width:0.05223881"
     d="M 9.1944443,20.696222 C 5.0381018,16.535596 1.8031556,13.256433 1.6537219,13.052429 1.051727,12.230599 0.61234688,11.356251 0.3548804,10.467788 -0.8834978,6.1944034 1.4635057,1.7686138 5.6865672,0.41372274 6.5591099,0.13378357 7.1658871,0.04309824 8.1679104,0.04287577 9.4022628,0.04260152 10.364281,0.23464944 11.418079,0.69170678 12.557801,1.1860308 13.079155,1.577049 14.595353,3.0746766 c 0.860814,0.8502709 1.299575,1.2463259 1.462686,1.320317 0.278064,0.1261363 0.610275,0.1372878 0.869035,0.029171 0.11657,-0.048706 0.669774,-0.5526556 1.447949,-1.3190298 1.404246,-1.3829523 1.853092,-1.7339946 2.82647,-2.21057935 0.781843,-0.38280591 1.439253,-0.59822612 2.246268,-0.73605784 0.534403,-0.09127158 0.773266,-0.10310237 1.619403,-0.08020808 0.647838,0.01752884 1.128603,0.05737579 1.384329,0.11473656 3.311437,0.74277509 5.747931,3.20229321 6.372212,6.43242921 0.444736,2.3011366 -0.08694,4.6005147 -1.499779,6.4861657 -0.26558,0.354457 -3.342696,3.439277 -13.034956,13.067592 l -1.815507,1.803529 z" />
  <path
     id="path6"
     style="fill:none;stroke-width:0.05223881"
     d="M 9.1944443,20.696222 C 5.0381018,16.535596 1.8031556,13.256433 1.6537219,13.052429 1.051727,12.230599 0.61234688,11.356251 0.3548804,10.467788 -0.8834978,6.1944034 1.4635057,1.7686138 5.6865672,0.41372274 6.5591099,0.13378357 7.1658871,0.04309824 8.1679104,0.04287577 9.4022628,0.04260152 10.364281,0.23464944 11.418079,0.69170678 12.557801,1.1860308 13.079155,1.577049 14.595353,3.0746766 c 0.860814,0.8502709 1.299575,1.2463259 1.462686,1.320317 0.278064,0.1261363 0.610275,0.1372878 0.869035,0.029171 0.11657,-0.048706 0.669774,-0.5526556 1.447949,-1.3190298 1.404246,-1.3829523 1.853092,-1.7339946 2.82647,-2.21057935 0.781843,-0.38280591 1.439253,-0.59822612 2.246268,-0.73605784 0.534403,-0.09127158 0.773266,-0.10310237 1.619403,-0.08020808 0.647838,0.01752884 1.128603,0.05737579 1.384329,0.11473656 3.311437,0.74277509 5.747931,3.20229321 6.372212,6.43242921 0.444736,2.3011366 -0.08694,4.6005147 -1.499779,6.4861657 -0.26558,0.354457 -3.342696,3.439277 -13.034956,13.067592 l -1.815507,1.803529 z" />
  <path
     id="path8"
     style="fill:none;stroke-width:0.05223881"
     d="M 9.1294247,20.683955 C 4.6089756,16.157929 1.711141,13.217689 1.5481986,12.991791 -0.4813084,10.17815 -0.54553304,6.4355613 1.3863121,3.5581122 1.7611274,2.9998315 2.7242461,1.9987227 3.2776871,1.5921324 4.3449572,0.80805289 5.5446093,0.30168386 6.8613192,0.07949362 c 0.6583803,-0.11109941 1.9549767,-0.11110225 2.6125614,-5.71e-6 0.9949284,0.1680895 1.9804714,0.51324863 2.7931294,0.97821599 0.693073,0.3965456 1.286125,0.8901711 2.48299,2.0667104 0.646455,0.6354767 1.250605,1.1938691 1.342555,1.2408721 0.209008,0.1068401 0.587237,0.1099604 0.833944,0.00688 0.115941,-0.048444 0.671247,-0.5546861 1.447948,-1.3200173 1.370482,-1.3504194 1.84061,-1.722977 2.748687,-2.17822872 1.122734,-0.56286644 2.079221,-0.80491752 3.351343,-0.84809953 1.328884,-0.04510878 2.248203,0.10603507 3.41158,0.56089297 1.788062,0.69909748 3.390018,2.16422738 4.253449,3.89015198 1.475771,2.9499431 1.080225,6.4463592 -1.013517,8.9589552 -0.179563,0.215485 -1.428197,1.482993 -2.774741,2.816684 -1.346545,1.333692 -4.558192,4.52483 -7.136994,7.091418 -2.578802,2.566588 -4.706424,4.666525 -4.728049,4.666525 -0.02162,0 -3.332175,-3.296922 -7.3567803,-7.326493 z" />
  <path
     id="path10"
     style="fill:none;stroke-width:0.05223881"
     d="M 9.1294247,20.683955 C 4.6089756,16.157929 1.711141,13.217689 1.5481986,12.991791 -0.4813084,10.17815 -0.54553304,6.4355613 1.3863121,3.5581122 1.7611274,2.9998315 2.7242461,1.9987227 3.2776871,1.5921324 4.3449572,0.80805289 5.5446093,0.30168386 6.8613192,0.07949362 c 0.6583803,-0.11109941 1.9549767,-0.11110225 2.6125614,-5.71e-6 0.9949284,0.1680895 1.9804714,0.51324863 2.7931294,0.97821599 0.693073,0.3965456 1.286125,0.8901711 2.48299,2.0667104 0.646455,0.6354767 1.250605,1.1938691 1.342555,1.2408721 0.209008,0.1068401 0.587237,0.1099604 0.833944,0.00688 0.115941,-0.048444 0.671247,-0.5546861 1.447948,-1.3200173 1.370482,-1.3504194 1.84061,-1.722977 2.748687,-2.17822872 1.122734,-0.56286644 2.079221,-0.80491752 3.351343,-0.84809953 1.328884,-0.04510878 2.248203,0.10603507 3.41158,0.56089297 1.788062,0.69909748 3.390018,2.16422738 4.253449,3.89015198 1.475771,2.9499431 1.080225,6.4463592 -1.013517,8.9589552 -0.179563,0.215485 -1.428197,1.482993 -2.774741,2.816684 -1.346545,1.333692 -4.558192,4.52483 -7.136994,7.091418 -2.578802,2.566588 -4.706424,4.666525 -4.728049,4.666525 -0.02162,0 -3.332175,-3.296922 -7.3567803,-7.326493 z" />
  <path
     id="path12"
     style="fill:none;stroke-width:0.05223881"
     d="M 9.1294247,20.683955 C 4.6089756,16.157929 1.711141,13.217689 1.5481986,12.991791 -0.4813084,10.17815 -0.54553304,6.4355613 1.3863121,3.5581122 1.7611274,2.9998315 2.7242461,1.9987227 3.2776871,1.5921324 4.3449572,0.80805289 5.5446093,0.30168386 6.8613192,0.07949362 c 0.6583803,-0.11109941 1.9549767,-0.11110225 2.6125614,-5.71e-6 0.9949284,0.1680895 1.9804714,0.51324863 2.7931294,0.97821599 0.693073,0.3965456 1.286125,0.8901711 2.48299,2.0667104 0.646455,0.6354767 1.250605,1.1938691 1.342555,1.2408721 0.209008,0.1068401 0.587237,0.1099604 0.833944,0.00688 0.115941,-0.048444 0.671247,-0.5546861 1.447948,-1.3200173 1.370482,-1.3504194 1.84061,-1.722977 2.748687,-2.17822872 1.122734,-0.56286644 2.079221,-0.80491752 3.351343,-0.84809953 1.328884,-0.04510878 2.248203,0.10603507 3.41158,0.56089297 1.788062,0.69909748 3.390018,2.16422738 4.253449,3.89015198 1.475771,2.9499431 1.080225,6.4463592 -1.013517,8.9589552 -0.179563,0.215485 -1.428197,1.482993 -2.774741,2.816684 -1.346545,1.333692 -4.558192,4.52483 -7.136994,7.091418 -2.578802,2.566588 -4.706424,4.666525 -4.728049,4.666525 -0.02162,0 -3.332175,-3.296922 -7.3567803,-7.326493 z" />
  <path
     id="path831"
     d="M 27,3 7.4546961,22.545358"
     style="fill:none;stroke:#000;stroke-width:2.5;stroke-linecap:round;stroke-linejoin:miter;stroke-miterlimit:4;stroke-dasharray:none;stroke-opacity:1" />
  <path
     style="fill:none;stroke:#000;stroke-width:2.5;stroke-linecap:round;stroke-linejoin:miter;stroke-miterlimit:4;stroke-dasharray:none;stroke-opacity:1"
     d="M 7.4546961,3 27,22.545358"
     id="path837" />
</svg>
